<svg width="43" height="32" viewBox="0 0 43 32" fill="none" xmlns="http://www.w3.org/2000/svg">
<g clip-path="url(#clip0_668_1180)">
<mask id="mask0_668_1180" style="mask-type:luminance" maskUnits="userSpaceOnUse" x="0" y="0" width="43" height="32">
<path d="M0.302368 0.100098H42.6981V31.9001H0.302368V0.100098Z" fill="white"/>
</mask>
<g mask="url(#mask0_668_1180)">
<path d="M-10.3 0.100098H53.2999V31.9001H-10.3V0.100098Z" fill="#239E46"/>
<path d="M-10.3 0.100098H53.2999V23.9501H-10.3V0.100098Z" fill="#000001"/>
<path d="M-10.3 0.100098H53.2999V8.0501H-10.3V0.100098Z" fill="#E70013"/>
<path d="M24.3111 13.189C23.7947 12.8205 23.1868 12.6014 22.5541 12.5557C21.9213 12.5099 21.2882 12.6394 20.7242 12.9298C20.1601 13.2202 19.687 13.6604 19.3567 14.202C19.0264 14.7436 18.8516 15.3657 18.8516 16.0001C18.8516 16.6345 19.0264 17.2567 19.3567 17.7983C19.687 18.3399 20.1601 18.7801 20.7242 19.0705C21.2882 19.3609 21.9213 19.4904 22.5541 19.4446C23.1868 19.3989 23.7947 19.1798 24.3111 18.8113C23.7552 19.3671 23.0469 19.7456 22.2759 19.8988C21.5048 20.0521 20.7056 19.9734 19.9793 19.6725C19.2531 19.3716 18.6323 18.8621 18.1956 18.2084C17.7589 17.5548 17.5258 16.7863 17.5258 16.0001C17.5258 15.214 17.7589 14.4455 18.1956 13.7919C18.6323 13.1382 19.2531 12.6287 19.9793 12.3278C20.7056 12.0269 21.5048 11.9482 22.2759 12.1014C23.0469 12.2547 23.7552 12.6332 24.3111 13.189ZM23.4335 16.0001L28.7822 14.2639L25.475 18.8113V13.189L28.7822 17.7364L23.4335 16.0001Z" fill="white"/>
</g>
</g>
<defs>
<clipPath id="clip0_668_1180">
<rect x="0.300049" y="0.100098" width="42.4" height="31.8" rx="6.4" fill="white"/>
</clipPath>
</defs>
</svg>
