<svg width="34" height="34" viewBox="0 0 34 34" fill="none" xmlns="http://www.w3.org/2000/svg">
<rect x="1" y="1" width="32" height="32" rx="8" fill="#3EB655" fill-opacity="0.08"/>
<rect x="1" y="1" width="32" height="32" rx="8" stroke="#3EB655" stroke-opacity="0.24"/>
<path d="M13.6668 18.6667V18.675M17.0002 18.6667V18.675M20.3335 18.6667V18.675M13.6668 21.1667V21.175M17.0002 21.1667V21.175M20.3335 21.1667V21.175M10.3335 11.1667C10.3335 10.7246 10.5091 10.3007 10.8217 9.98816C11.1342 9.67559 11.5581 9.5 12.0002 9.5H22.0002C22.4422 9.5 22.8661 9.67559 23.1787 9.98816C23.4912 10.3007 23.6668 10.7246 23.6668 11.1667V22.8333C23.6668 23.2754 23.4912 23.6993 23.1787 24.0118C22.8661 24.3244 22.4422 24.5 22.0002 24.5H12.0002C11.5581 24.5 11.1342 24.3244 10.8217 24.0118C10.5091 23.6993 10.3335 23.2754 10.3335 22.8333V11.1667ZM13.6668 13.6667C13.6668 13.4457 13.7546 13.2337 13.9109 13.0774C14.0672 12.9211 14.2791 12.8333 14.5002 12.8333H19.5002C19.7212 12.8333 19.9331 12.9211 20.0894 13.0774C20.2457 13.2337 20.3335 13.4457 20.3335 13.6667V14.5C20.3335 14.721 20.2457 14.933 20.0894 15.0893C19.9331 15.2455 19.7212 15.3333 19.5002 15.3333H14.5002C14.2791 15.3333 14.0672 15.2455 13.9109 15.0893C13.7546 14.933 13.6668 14.721 13.6668 14.5V13.6667Z" stroke="#3EB655" stroke-width="1.5" stroke-linecap="round" stroke-linejoin="round"/>
</svg>
