<svg width="20" height="20" viewBox="0 0 20 20" fill="none" xmlns="http://www.w3.org/2000/svg">
<path d="M7.5 11.6667C7.5 13.0475 9.73833 14.1667 12.5 14.1667C15.2617 14.1667 17.5 13.0475 17.5 11.6667M7.5 11.6667C7.5 10.2858 9.73833 9.16667 12.5 9.16667C15.2617 9.16667 17.5 10.2858 17.5 11.6667M7.5 11.6667V15C7.5 16.38 9.73833 17.5 12.5 17.5C15.2617 17.5 17.5 16.38 17.5 15V11.6667M2.5 5C2.5 5.89333 3.45333 6.71833 5 7.165C6.54667 7.61167 8.45333 7.61167 10 7.165C11.5467 6.71833 12.5 5.89333 12.5 5C12.5 4.10667 11.5467 3.28167 10 2.835C8.45333 2.38833 6.54667 2.38833 5 2.835C3.45333 3.28167 2.5 4.10667 2.5 5ZM2.5 5V13.3333C2.5 14.0733 3.14333 14.5417 4.16667 15M2.5 9.16667C2.5 9.90667 3.14333 10.375 4.16667 10.8333" stroke="#B3B3B3" stroke-width="1.3" stroke-linecap="round" stroke-linejoin="round"/>
</svg>
