<svg width="20" height="20" viewBox="0 0 20 20" fill="none" xmlns="http://www.w3.org/2000/svg">
<path d="M10 4.6333H18.3333" stroke="#B3B3B3" stroke-width="1.3" stroke-miterlimit="10" stroke-linecap="round" stroke-linejoin="round"/>
<path d="M11.85 1.66675H16.4833C17.9667 1.66675 18.3333 2.03342 18.3333 3.50008V6.92508C18.3333 8.39175 17.9667 8.75841 16.4833 8.75841H11.85C10.3667 8.75841 10 8.39175 10 6.92508V3.50008C10 2.03342 10.3667 1.66675 11.85 1.66675Z" stroke="#B3B3B3" stroke-width="1.3" stroke-linecap="round" stroke-linejoin="round"/>
<path d="M1.66675 14.2166H10.0001" stroke="#B3B3B3" stroke-width="1.3" stroke-miterlimit="10" stroke-linecap="round" stroke-linejoin="round"/>
<path d="M3.51675 11.25H8.15008C9.63341 11.25 10.0001 11.6167 10.0001 13.0833V16.5083C10.0001 17.975 9.63341 18.3417 8.15008 18.3417H3.51675C2.03342 18.3417 1.66675 17.975 1.66675 16.5083V13.0833C1.66675 11.6167 2.03342 11.25 3.51675 11.25Z" stroke="#B3B3B3" stroke-width="1.3" stroke-linecap="round" stroke-linejoin="round"/>
<path d="M18.3333 12.5C18.3333 15.725 15.725 18.3333 12.5 18.3333L13.375 16.875" stroke="#B3B3B3" stroke-width="1.3" stroke-linecap="round" stroke-linejoin="round"/>
<path d="M1.66675 7.50008C1.66675 4.27508 4.27508 1.66675 7.50008 1.66675L6.62509 3.12508" stroke="#B3B3B3" stroke-width="1.3" stroke-linecap="round" stroke-linejoin="round"/>
</svg>
