<svg width="20" height="20" viewBox="0 0 20 20" fill="none" xmlns="http://www.w3.org/2000/svg">
<path d="M13.9166 6.66667C13.7507 6.19603 13.4478 5.7858 13.0468 5.48878C12.6458 5.19176 12.1651 5.02153 11.6666 5H8.33325C7.67021 5 7.03433 5.26339 6.56549 5.73223C6.09664 6.20107 5.83325 6.83696 5.83325 7.5C5.83325 8.16304 6.09664 8.79893 6.56549 9.26777C7.03433 9.73661 7.67021 10 8.33325 10H11.6666C12.3296 10 12.9655 10.2634 13.4344 10.7322C13.9032 11.2011 14.1666 11.837 14.1666 12.5C14.1666 13.163 13.9032 13.7989 13.4344 14.2678C12.9655 14.7366 12.3296 15 11.6666 15H8.33325C7.83471 14.9785 7.35401 14.8082 6.95303 14.5112C6.55204 14.2142 6.24912 13.804 6.08325 13.3333M9.99992 2.5V5M9.99992 15V17.5" stroke="#B3B3B3" stroke-width="1.3" stroke-linecap="round" stroke-linejoin="round"/>
</svg>
