<svg width="28" height="28" viewBox="0 0 28 28" fill="none" xmlns="http://www.w3.org/2000/svg">
<rect width="28" height="28" rx="14" fill="url(#paint0_linear_581_986)"/>
<path d="M15.125 9.87498L18.125 12.875M17 18.5H20M11 20L18.875 12.125C19.072 11.928 19.2282 11.6941 19.3348 11.4368C19.4415 11.1794 19.4963 10.9036 19.4963 10.625C19.4963 10.3464 19.4415 10.0706 19.3348 9.81319C19.2282 9.55582 19.072 9.32197 18.875 9.12498C18.678 8.928 18.4442 8.77174 18.1868 8.66514C17.9294 8.55853 17.6536 8.50366 17.375 8.50366C17.0964 8.50366 16.8206 8.55853 16.5632 8.66514C16.3058 8.77174 16.072 8.928 15.875 9.12498L8 17V20H11Z" stroke="white" stroke-width="1.3" stroke-linecap="round" stroke-linejoin="round"/>
<defs>
<linearGradient id="paint0_linear_581_986" x1="0" y1="14" x2="28" y2="14" gradientUnits="userSpaceOnUse">
<stop stop-color="#2B0233"/>
<stop offset="0.254808" stop-color="#7A0092"/>
<stop offset="1" stop-color="#800699"/>
</linearGradient>
</defs>
</svg>
