<svg width="43" height="32" viewBox="0 0 43 32" fill="none" xmlns="http://www.w3.org/2000/svg">
<path d="M0.300049 0H42.7001V32H0.300049V0Z" fill="#012169"/>
<path d="M42.7001 0V4L26.9657 16L42.7001 27.6875V32H37.1516L21.3344 20.25L5.9313 32H0.300049V27.75L15.7032 16.0625L0.300049 4.625V0H5.43442L21.3344 11.75L36.7376 0H42.7001Z" fill="white"/>
<path d="M15.5375 20.25L16.4485 22.375L3.77817 32H0.300049V31.8125L15.5375 20.25ZM25.8063 19.5L30.2782 20L42.7001 29.1875V32L25.8063 19.5ZM42.7001 0L26.8 12.25L26.4688 9.5L38.8907 0H42.7001ZM0.300049 0.0625L16.2829 11.875L11.3969 11.375L0.300049 3.0625V0.0625Z" fill="#C8102E"/>
<path d="M14.875 0V32H28.125V0H14.875ZM0.300049 11V21H42.7001V11H0.300049Z" fill="white"/>
<path d="M0.300049 13V19H42.7001V13H0.300049ZM17.525 0V32H25.475V0H17.525Z" fill="#C8102E"/>
</svg>
