<svg width="20" height="20" viewBox="0 0 20 20" fill="none" xmlns="http://www.w3.org/2000/svg">
<path d="M12.5 6.66659H14.1667M12.5 9.99992H14.1667M5.83333 13.3333H14.1667M2.5 5.83325C2.5 5.17021 2.76339 4.53433 3.23223 4.06549C3.70107 3.59664 4.33696 3.33325 5 3.33325H15C15.663 3.33325 16.2989 3.59664 16.7678 4.06549C17.2366 4.53433 17.5 5.17021 17.5 5.83325V14.1666C17.5 14.8296 17.2366 15.4655 16.7678 15.9344C16.2989 16.4032 15.663 16.6666 15 16.6666H5C4.33696 16.6666 3.70107 16.4032 3.23223 15.9344C2.76339 15.4655 2.5 14.8296 2.5 14.1666V5.83325ZM5.83333 8.33325C5.83333 8.77528 6.00893 9.1992 6.32149 9.51176C6.63405 9.82432 7.05797 9.99992 7.5 9.99992C7.94203 9.99992 8.36595 9.82432 8.67851 9.51176C8.99107 9.1992 9.16667 8.77528 9.16667 8.33325C9.16667 7.89122 8.99107 7.4673 8.67851 7.15474C8.36595 6.84218 7.94203 6.66659 7.5 6.66659C7.05797 6.66659 6.63405 6.84218 6.32149 7.15474C6.00893 7.4673 5.83333 7.89122 5.83333 8.33325Z" stroke="#B3B3B3" stroke-width="1.3" stroke-linecap="round" stroke-linejoin="round"/>
</svg>
