<svg width="44" height="44" viewBox="0 0 44 44" fill="none" xmlns="http://www.w3.org/2000/svg">
<rect width="44" height="44" rx="22" fill="white" fill-opacity="0.12"/>
<rect x="0.5" y="0.5" width="43" height="43" rx="21.5" stroke="#9B9B9B" stroke-opacity="0.12"/>
<path d="M13.6 19H30.4M13.6 25H30.4M21.5 13C19.8153 15.6996 18.9222 18.8179 18.9222 22C18.9222 25.1821 19.8153 28.3004 21.5 31M22.5 13C24.1847 15.6996 25.0778 18.8179 25.0778 22C25.0778 25.1821 24.1847 28.3004 22.5 31M13 22C13 23.1819 13.2328 24.3522 13.6851 25.4442C14.1374 26.5361 14.8003 27.5282 15.636 28.364C16.4718 29.1997 17.4639 29.8626 18.5558 30.3149C19.6478 30.7672 20.8181 31 22 31C23.1819 31 24.3522 30.7672 25.4442 30.3149C26.5361 29.8626 27.5282 29.1997 28.364 28.364C29.1997 27.5282 29.8626 26.5361 30.3149 25.4442C30.7672 24.3522 31 23.1819 31 22C31 19.6131 30.0518 17.3239 28.364 15.636C26.6761 13.9482 24.3869 13 22 13C19.6131 13 17.3239 13.9482 15.636 15.636C13.9482 17.3239 13 19.6131 13 22Z" stroke="white" stroke-width="1.3" stroke-linecap="round" stroke-linejoin="round"/>
</svg>
