<svg width="36" height="36" viewBox="0 0 36 36" fill="none" xmlns="http://www.w3.org/2000/svg">
<rect width="36" height="36" rx="12" fill="#F2C94B" fill-opacity="0.14"/>
<path d="M15.8333 26.7769C14.8904 26.5795 13.9848 26.2529 13.1467 25.8079M20.1667 9.2229C22.3205 9.67697 24.2435 10.7926 25.6209 12.3871C26.9982 13.9816 27.7483 15.9606 27.7483 17.9999C27.7483 20.0392 26.9982 22.0182 25.6209 23.6127C24.2435 25.2072 22.3205 26.3228 20.1667 26.7769M9.96059 23.0929C9.36963 22.3004 8.92081 21.4252 8.63134 20.5009M8.38434 16.4999C8.55767 15.5499 8.89134 14.6499 9.35934 13.8249L9.54242 13.5199M12.4826 10.5789C13.4962 9.9348 14.6334 9.47462 15.8333 9.2229M18 13.9999V17.9999L21.25 20.9999" stroke="#F2C94B" stroke-width="2" stroke-linecap="round" stroke-linejoin="round"/>
</svg>
