<svg width="30" height="30" viewBox="0 0 30 30" fill="none" xmlns="http://www.w3.org/2000/svg">
<rect width="30" height="30" rx="8" fill="#6E0084" fill-opacity="0.1"/>
<path d="M14.0489 8.92705C14.3483 8.00574 15.6517 8.00574 15.9511 8.92705L16.7961 11.5279C16.93 11.9399 17.3139 12.2188 17.7472 12.2188H20.4818C21.4505 12.2188 21.8533 13.4585 21.0696 14.0279L18.8572 15.6353C18.5067 15.8899 18.3601 16.3413 18.494 16.7533L19.339 19.3541C19.6384 20.2754 18.5839 21.0415 17.8002 20.4721L15.5878 18.8647C15.2373 18.6101 14.7627 18.6101 14.4122 18.8647L12.1998 20.4721C11.4161 21.0415 10.3616 20.2754 10.661 19.3541L11.506 16.7533C11.6399 16.3413 11.4933 15.8899 11.1428 15.6353L8.93039 14.0279C8.14668 13.4585 8.54945 12.2188 9.51818 12.2188H12.2528C12.6861 12.2188 13.07 11.9399 13.2039 11.5279L14.0489 8.92705Z" fill="url(#paint0_linear_581_1030)"/>
<defs>
<linearGradient id="paint0_linear_581_1030" x1="6" y1="15" x2="24" y2="15" gradientUnits="userSpaceOnUse">
<stop stop-color="#2B0233"/>
<stop offset="0.254808" stop-color="#7A0092"/>
<stop offset="1" stop-color="#800699"/>
</linearGradient>
</defs>
</svg>
