<svg width="22" height="22" viewBox="0 0 22 22" fill="none" xmlns="http://www.w3.org/2000/svg">
<path d="M0 7C0 3.13401 3.13401 0 7 0H15C18.866 0 22 3.13401 22 7V15C22 18.866 18.866 22 15 22H7C3.13401 22 0 18.866 0 15V7Z" fill="#6E0084" fill-opacity="0.08"/>
<path d="M14.5901 7.94444C14.4381 7.51303 14.1604 7.13699 13.7928 6.86471C13.4253 6.59244 12.9846 6.4364 12.5276 6.41667H9.47209C8.8643 6.41667 8.2814 6.65811 7.85163 7.08788C7.42186 7.51765 7.18042 8.10055 7.18042 8.70833C7.18042 9.31612 7.42186 9.89902 7.85163 10.3288C8.2814 10.7586 8.8643 11 9.47209 11H12.5276C13.1354 11 13.7183 11.2414 14.1481 11.6712C14.5779 12.101 14.8193 12.6839 14.8193 13.2917C14.8193 13.8995 14.5779 14.4823 14.1481 14.9121C13.7183 15.3419 13.1354 15.5833 12.5276 15.5833H9.47209C9.01509 15.5636 8.57445 15.4076 8.20688 15.1353C7.83931 14.863 7.56164 14.487 7.40959 14.0556M10.9999 4.125V6.41667M10.9999 15.5833V17.875" stroke="#6E0084" stroke-width="1.19167" stroke-linecap="round" stroke-linejoin="round"/>
</svg>
