<svg width="34" height="34" viewBox="0 0 34 34" fill="none" xmlns="http://www.w3.org/2000/svg">
<rect x="1" y="1" width="32" height="32" rx="8" fill="#6E0084" fill-opacity="0.06"/>
<rect x="1" y="1" width="32" height="32" rx="8" stroke="#6E0084" stroke-opacity="0.2"/>
<path d="M9.5 24.5V22.8333C9.5 21.9493 9.85119 21.1014 10.4763 20.4763C11.1014 19.8512 11.9493 19.5 12.8333 19.5H16.1667C17.0507 19.5 17.8986 19.8512 18.5237 20.4763C19.1488 21.1014 19.5 21.9493 19.5 22.8333V24.5M20.3333 9.60834C21.0503 9.79192 21.6859 10.2089 22.1397 10.7936C22.5935 11.3783 22.8399 12.0974 22.8399 12.8375C22.8399 13.5776 22.5935 14.2967 22.1397 14.8814C21.6859 15.4661 21.0503 15.8831 20.3333 16.0667M24.5 24.5V22.8334C24.4958 22.0977 24.2483 21.384 23.7961 20.8037C23.3439 20.2234 22.7124 19.8089 22 19.625M11.1667 12.8333C11.1667 13.7174 11.5179 14.5652 12.143 15.1904C12.7681 15.8155 13.6159 16.1667 14.5 16.1667C15.3841 16.1667 16.2319 15.8155 16.857 15.1904C17.4821 14.5652 17.8333 13.7174 17.8333 12.8333C17.8333 11.9493 17.4821 11.1014 16.857 10.4763C16.2319 9.85119 15.3841 9.5 14.5 9.5C13.6159 9.5 12.7681 9.85119 12.143 10.4763C11.5179 11.1014 11.1667 11.9493 11.1667 12.8333Z" stroke="#6E0084" stroke-width="1.5" stroke-linecap="round" stroke-linejoin="round"/>
</svg>
