<svg width="24" height="24" viewBox="0 0 24 24" fill="none" xmlns="http://www.w3.org/2000/svg">
<path d="M16 19C16 18.4696 16.2107 17.9609 16.5858 17.5858C16.9609 17.2107 17.4696 17 18 17C18.5304 17 19.0391 17.2107 19.4142 17.5858C19.7893 17.9609 20 18.4696 20 19C20 19.5304 19.7893 20.0391 19.4142 20.4142C19.0391 20.7893 18.5304 21 18 21C17.4696 21 16.9609 20.7893 16.5858 20.4142C16.2107 20.0391 16 19.5304 16 19ZM16 19H11C9.67392 19 8.40215 18.4732 7.46447 17.5355C6.52678 16.5979 6 15.3261 6 14L6 11M8 5C8 5.53043 7.78929 6.03914 7.41421 6.41421C7.03914 6.78929 6.53043 7 6 7C5.46957 7 4.96086 6.78929 4.58579 6.41421C4.21071 6.03914 4 5.53043 4 5C4 4.46957 4.21071 3.96086 4.58579 3.58579C4.96086 3.21071 5.46957 3 6 3C6.53043 3 7.03914 3.21071 7.41421 3.58579C7.78929 3.96086 8 4.46957 8 5ZM8 5H13C14.3261 5 15.5979 5.52678 16.5355 6.46447C17.4732 7.40215 18 8.67392 18 10V13M18 13L15 10M18 13L21 10M6 11L3 14M6 11L9 14" stroke="#6E0084" stroke-width="1.5" stroke-linecap="round" stroke-linejoin="round"/>
</svg>
