<svg width="24" height="25" viewBox="0 0 24 25" fill="none" xmlns="http://www.w3.org/2000/svg">
<path d="M22.0303 1.00051L16.5707 7.48919M22.0303 1.00051L16.8603 1.23164M22.0303 1.00051L22.2867 6.60919" stroke="#6E0084" stroke-width="1.5" stroke-linecap="round" stroke-linejoin="round"/>
<path d="M20.0411 9.60091C21.4903 12.7007 21.0288 16.4181 18.5781 18.9504L18.268 19.2539C15.004 22.2889 9.76458 22.1992 6.36099 18.9771C2.84782 15.651 2.62104 10.2464 5.85465 6.90534C7.98304 4.70632 11.0799 3.94964 13.9502 4.63748L13.1556 5.49215C10.7768 5.10072 8.30488 5.81159 6.58085 7.59282C3.75709 10.5104 3.9169 15.2861 7.05645 18.2585C10.1962 21.2309 15.028 21.1805 17.8519 18.2629C19.8939 16.1529 20.3743 13.0711 19.2968 10.4023L20.0411 9.60091Z" fill="#6E0084"/>
<path d="M15.0312 10.9699C14.9223 10.6984 14.7236 10.4618 14.4605 10.2905C14.1974 10.1192 13.8821 10.021 13.555 10.0086H11.368C10.933 10.0086 10.5158 10.1605 10.2082 10.4309C9.90059 10.7013 9.72778 11.0681 9.72778 11.4505C9.72778 11.8329 9.90059 12.1997 10.2082 12.4701C10.5158 12.7405 10.933 12.8924 11.368 12.8924H13.555C13.99 12.8924 14.4072 13.0444 14.7148 13.3148C15.0224 13.5852 15.1952 13.9519 15.1952 14.3344C15.1952 14.7168 15.0224 15.0835 14.7148 15.354C14.4072 15.6244 13.99 15.7763 13.555 15.7763H11.368C11.0409 15.7639 10.7255 15.6657 10.4625 15.4944C10.1994 15.3231 10.0006 15.0865 9.89181 14.815M12.4615 8.56665V10.0086M12.4615 15.7763V17.2182" stroke="#6E0084" stroke-width="1.5" stroke-linecap="round" stroke-linejoin="round"/>
</svg>
