<svg width="30" height="30" viewBox="0 0 30 30" fill="none" xmlns="http://www.w3.org/2000/svg">
<g clip-path="url(#clip0_2544_21389)">
<path d="M22.5 2.01008C24.7624 3.31636 26.6444 5.19087 27.9597 7.44803C29.275 9.70519 29.978 12.2667 29.9991 14.8791C30.0202 17.4914 29.3587 20.064 28.08 22.3421C26.8013 24.6202 24.9499 26.5249 22.7089 27.8676C20.4679 29.2102 17.915 29.9443 15.3031 29.9972C12.6912 30.05 10.1108 29.4198 7.81733 28.1689C5.52384 26.9181 3.59681 25.0899 2.227 22.8654C0.857193 20.6408 0.0921139 18.0971 0.00750017 15.4861L0 15.0001L0.00750017 14.5141C0.0915048 11.9236 0.845321 9.39902 2.19546 7.18657C3.5456 4.97412 5.44598 3.14926 7.71134 1.88991C9.97669 0.630552 12.5297 -0.020322 15.1215 0.000739509C17.7133 0.021801 20.2554 0.714079 22.5 2.01008ZM20.5605 10.9396C20.3022 10.6813 19.9586 10.5262 19.594 10.5032C19.2295 10.4803 18.8691 10.5912 18.5805 10.8151L18.4395 10.9396L13.5 15.8776L11.5605 13.9396L11.4195 13.8151C11.1309 13.5914 10.7706 13.4806 10.4061 13.5036C10.0417 13.5266 9.69811 13.6818 9.43989 13.94C9.18167 14.1982 9.02652 14.5417 9.00353 14.9062C8.98053 15.2706 9.09128 15.631 9.315 15.9196L9.4395 16.0606L12.4395 19.0606L12.5805 19.1851C12.8436 19.3892 13.167 19.5 13.5 19.5C13.8329 19.5 14.1564 19.3892 14.4195 19.1851L14.5605 19.0606L20.5605 13.0606L20.685 12.9196C20.9089 12.631 21.0197 12.2706 20.9968 11.9061C20.9739 11.5415 20.8188 11.1979 20.5605 10.9396Z" fill="#3EB655"/>
</g>
<defs>
<clipPath id="clip0_2544_21389">
<rect width="30" height="30" fill="white"/>
</clipPath>
</defs>
</svg>
