<svg width="44" height="44" viewBox="0 0 44 44" fill="none" xmlns="http://www.w3.org/2000/svg">
<rect width="44" height="44" rx="22" fill="white" fill-opacity="0.12"/>
<rect x="0.5" y="0.5" width="43" height="43" rx="21.5" stroke="#9B9B9B" stroke-opacity="0.12"/>
<path d="M14 24V21C14 18.8783 14.8429 16.8434 16.3431 15.3431C17.8434 13.8429 19.8783 13 22 13C24.1217 13 26.1566 13.8429 27.6569 15.3431C29.1571 16.8434 30 18.8783 30 21V24M14 24C14 23.4696 14.2107 22.9609 14.5858 22.5858C14.9609 22.2107 15.4696 22 16 22H17C17.5304 22 18.0391 22.2107 18.4142 22.5858C18.7893 22.9609 19 23.4696 19 24V27C19 27.5304 18.7893 28.0391 18.4142 28.4142C18.0391 28.7893 17.5304 29 17 29H16C15.4696 29 14.9609 28.7893 14.5858 28.4142C14.2107 28.0391 14 27.5304 14 27V24ZM30 24C30 23.4696 29.7893 22.9609 29.4142 22.5858C29.0391 22.2107 28.5304 22 28 22H27C26.4696 22 25.9609 22.2107 25.5858 22.5858C25.2107 22.9609 25 23.4696 25 24V27C25 27.5304 25.2107 28.0391 25.5858 28.4142C25.9609 28.7893 26.4696 29 27 29H28M30 24V27C30 27.5304 29.7893 28.0391 29.4142 28.4142C29.0391 28.7893 28.5304 29 28 29M28 29C28 30.657 25.314 32 22 32" stroke="white" stroke-width="1.5" stroke-linecap="round" stroke-linejoin="round"/>
</svg>
