<svg width="24" height="24" viewBox="0 0 24 24" fill="none" xmlns="http://www.w3.org/2000/svg">
<path d="M12 16.0001V16.0101M12 13.0001C12.4498 13.0015 12.8868 12.8512 13.2407 12.5735C13.5945 12.2959 13.8444 11.9071 13.95 11.4699C14.0557 11.0328 14.0109 10.5727 13.8229 10.1642C13.6349 9.75558 13.3147 9.42228 12.914 9.2181C12.5162 9.01431 12.0611 8.95112 11.6228 9.03882C11.1845 9.12651 10.7888 9.35993 10.5 9.7011M19.875 6.27008C20.575 6.66808 21.005 7.41308 21 8.21808V15.5021C21 16.3111 20.557 17.0571 19.842 17.4501L13.092 21.7201C12.7574 21.9038 12.3818 22.0001 12 22.0001C11.6182 22.0001 11.2426 21.9038 10.908 21.7201L4.158 17.4501C3.80817 17.2589 3.51612 16.9772 3.31241 16.6346C3.1087 16.2919 3.0008 15.9007 3 15.5021V8.21708C3 7.40808 3.443 6.66308 4.158 6.27008L10.908 2.29008C11.2525 2.10011 11.6396 2.00049 12.033 2.00049C12.4264 2.00049 12.8135 2.10011 13.158 2.29008L19.908 6.27008H19.875Z" stroke="#363A33" stroke-width="1.5" stroke-linecap="round" stroke-linejoin="round"/>
</svg>
