<svg width="20" height="20" viewBox="0 0 20 20" fill="none" xmlns="http://www.w3.org/2000/svg">
<path d="M6.6665 9.16667V5.83333C6.6665 4.94928 7.01769 4.10143 7.64281 3.47631C8.26794 2.85119 9.11578 2.5 9.99984 2.5C10.8839 2.5 11.7317 2.85119 12.3569 3.47631C12.982 4.10143 13.3332 4.94928 13.3332 5.83333V9.16667M4.1665 10.8333C4.1665 10.3913 4.3421 9.96738 4.65466 9.65482C4.96722 9.34226 5.39114 9.16667 5.83317 9.16667H14.1665C14.6085 9.16667 15.0325 9.34226 15.345 9.65482C15.6576 9.96738 15.8332 10.3913 15.8332 10.8333V15.8333C15.8332 16.2754 15.6576 16.6993 15.345 17.0118C15.0325 17.3244 14.6085 17.5 14.1665 17.5H5.83317C5.39114 17.5 4.96722 17.3244 4.65466 17.0118C4.3421 16.6993 4.1665 16.2754 4.1665 15.8333V10.8333ZM9.1665 13.3333C9.1665 13.5543 9.2543 13.7663 9.41058 13.9226C9.56686 14.0789 9.77882 14.1667 9.99984 14.1667C10.2209 14.1667 10.4328 14.0789 10.5891 13.9226C10.7454 13.7663 10.8332 13.5543 10.8332 13.3333C10.8332 13.1123 10.7454 12.9004 10.5891 12.7441C10.4328 12.5878 10.2209 12.5 9.99984 12.5C9.77882 12.5 9.56686 12.5878 9.41058 12.7441C9.2543 12.9004 9.1665 13.1123 9.1665 13.3333Z" stroke="#B3B3B3" stroke-width="1.3" stroke-linecap="round" stroke-linejoin="round"/>
</svg>
